<?xml version="1.0" encoding="UTF-8"?>
<svg id="Layer_2" data-name="Layer 2" xmlns="http://www.w3.org/2000/svg" viewBox="0 0 563.54 160.94">
    <defs>
        <style>
            .cls-1 {
            fill: #5a863e;
            }

            .cls-2 {
            fill: #8db849;
            }

            .cls-3 {
            fill: #1a1919;
            }

        </style>
    </defs>
    <g>
        <g>
            <path class="cls-2"
                  d="m63.81,5.09c1.13,0,1.69.56,2.82,1.13-6.78,2.82-13.55,10.16-16.94,25.97l-12.42,3.39c3.95-11.29,11.86-30.49,26.54-30.49Zm6.21,5.65c1.13,3.39,2.26,7.34,2.26,13.55v1.13l-16.38,4.52c3.39-11.86,9.03-16.94,14.12-19.2Zm14.68,10.16l-7.34,2.26v-1.69c0-5.08-.56-9.03-1.69-12.42,3.95,1.13,7.34,6.21,9.03,11.86Zm36.7,9.03c0-.56-.56-1.13-1.13-1.13-1.13,0-12.99-1.13-12.99-1.13,0,0-8.47-8.47-9.6-9.03-1.13-1.13-2.82-.56-3.39-.56,0,0-1.69.56-4.52,1.69-2.82-7.91-7.91-15.25-16.38-15.25h-.56C70.58,1.14,67.2,0,64.37,0c-20.33-.56-29.93,24.85-33.32,37.83-4.52,1.13-9.03,2.82-14.12,4.52-4.52,1.13-4.52,1.69-5.08,5.65-.56,2.82-11.86,92.04-11.86,92.04l89.78,16.94,48.56-10.73s-16.94-115.19-16.94-116.32Z"/>
            <path class="cls-1" d="m119.71,28.81c-.56,0-12.42-1.13-12.42-1.13,0,0-8.47-8.47-9.6-9.03q-.56-.56-1.13-.56l-6.78,138.91,48.56-10.73s-16.94-115.19-16.94-116.32c0-.56-1.13-1.13-1.69-1.13"/>
            <path class="fill-red-500"
                  d="m73.41,55.91l-6.21,18.07s-5.08-2.82-11.86-2.82c-9.6,0-10.16,5.65-10.16,7.34,0,7.91,21.46,11.29,21.46,30.49,0,15.25-9.6,24.85-22.59,24.85-15.25,0-23.15-9.6-23.15-9.6l3.95-13.55s7.91,6.78,14.68,6.78c4.52,0,6.21-3.39,6.21-6.21,0-10.73-17.5-11.29-17.5-28.8,0-14.68,10.73-28.8,31.62-28.8,9.6-.56,13.55,2.26,13.55,2.26"/>
            <path class="cls-3"
                  d="m195.38,89.23c-5.08-2.82-7.34-5.08-7.34-7.91,0-3.95,3.39-6.21,9.03-6.21,6.21,0,11.86,2.82,11.86,2.82l4.52-13.55s-3.95-3.39-15.81-3.39c-16.94,0-28.23,9.6-28.23,23.15,0,7.91,5.65,13.55,12.42,17.5,5.65,3.39,7.91,5.65,7.91,9.03s-2.82,6.78-8.47,6.78c-7.91,0-15.81-3.95-15.81-3.95l-4.52,13.55s6.78,4.52,18.63,4.52c16.94,0,29.36-8.47,29.36-23.72,0-8.47-6.21-14.68-13.55-18.63m68.32-28.8c-8.47,0-15.25,3.95-20.33,10.16h0l7.34-38.4h-19.2l-18.63,97.69h19.2l6.21-33.32c2.26-12.42,9.03-20.33,15.25-20.33,4.52,0,6.21,2.82,6.21,7.34,0,2.82,0,5.65-.56,8.47l-7.34,38.4h19.2l7.34-39.53c.56-3.95,1.13-9.03,1.13-12.42,0-11.29-5.65-18.07-15.81-18.07m49.13,55.9c-6.78,0-9.03-5.65-9.03-12.42,0-10.73,5.65-28.8,15.81-28.8,6.78,0,9.03,5.65,9.03,11.29,0,12.42-5.65,29.93-15.81,29.93Zm9.6-55.9c-23.15,0-38.4,20.89-38.4,44.04,0,14.68,9.03,26.54,26.54,26.54,22.59,0,37.83-20.33,37.83-44.04,0-13.55-7.91-26.54-25.97-26.54Zm56.47,56.47c-5.08,0-7.91-2.82-7.91-2.82l3.39-18.07c2.26-11.86,8.47-19.76,15.25-19.76,5.65,0,7.91,5.65,7.91,10.73-.56,12.42-7.91,29.93-18.63,29.93Zm18.63-56.47c-12.99,0-20.33,11.29-20.33,11.29h0l1.13-10.16h-16.94c-.56,6.78-2.26,17.5-3.95,25.41l-13.55,70.02h19.2l5.08-28.23h.56s3.95,2.26,11.29,2.26c22.59,0,37.27-23.15,37.27-46.3,0-12.42-5.65-24.28-19.76-24.28Zm46.87-27.1c-6.21,0-10.73,5.08-10.73,11.29,0,5.65,3.39,9.6,9.03,9.6h0c6.21,0,11.29-3.95,11.29-11.29,0-5.65-3.95-9.6-9.6-9.6m-26.54,96.56h19.2l12.99-67.76h-19.2l-12.99,67.76Zm80.75-67.76h-13.55l.56-3.39c1.13-6.78,5.08-12.42,11.29-12.42,3.39,0,6.21,1.13,6.21,1.13l3.95-15.25s-3.39-1.69-10.16-1.69-13.55,1.69-18.63,6.21c-6.78,5.65-9.6,13.55-11.29,21.46l-.56,3.39h-9.03l-2.82,14.68h9.03l-10.16,53.64h19.2l10.16-53.64h12.99l2.82-14.12Zm45.74,0s-11.86,29.93-17.5,46.3h0c-.56-5.08-4.52-46.3-4.52-46.3h-20.33l11.29,62.11c0,1.13,0,2.26-.56,3.39-2.26,4.52-6.21,8.47-10.16,11.29-3.39,2.82-7.91,4.52-10.73,5.65l5.08,16.38c3.95-.56,11.86-3.95,18.63-10.16,8.47-7.91,16.94-20.89,24.85-37.83l23.15-50.26-19.2-.56Z"/>
        </g>
    </g>
</svg>
