<?xml version="1.0" encoding="UTF-8"?>
<svg xmlns="http://www.w3.org/2000/svg" xmlns:xlink="http://www.w3.org/1999/xlink" viewBox="0 0 1346.05 157.65">
  <defs>
    <style>
      .cls-1 {
        fill: #5a863e;
      }

      .cls-2 {
        isolation: isolate;
      }

      .cls-3 {
        fill: #8db849;
      }

      .cls-4 {
        fill: url(#linear-gradient);
        opacity: .49;
      }

      .cls-4, .cls-5 {
        mix-blend-mode: overlay;
      }

      .cls-6 {
        clip-path: url(#clippath);
      }

      .cls-7 {
        fill: none;
      }

      .cls-5 {
        fill: url(#linear-gradient-2);
        opacity: .5;
      }
    </style>
    <clipPath id="clippath">
      <rect class="cls-7" x="227.5" y="48.06" width="873.81" height="109.59"/>
    </clipPath>
    <linearGradient id="linear-gradient" x1="673.26" y1="0" x2="673.26" y2="106.39" gradientUnits="userSpaceOnUse">
      <stop offset="0" stop-color="#fff" stop-opacity="0"/>
      <stop offset="1" stop-color="#000"/>
    </linearGradient>
    <linearGradient id="linear-gradient-2" x1="673.03" y1="106.39" x2="673.03" y2="141.02" xlink:href="#linear-gradient"/>
  </defs>
  <g class="cls-2">
    <g id="Layer_2" data-name="Layer 2">
      <g id="Layer_5" data-name="Layer 5">
        <g class="cls-6">
          <g>
            <g>
              <path class="cls-1" d="m104,16c7.69-8.9,9.23-16,3.61-16h-.52c-5.62,0-16.59,7.1-24.57,16L1.49,106.39h24.43L104,16Z"/>
              <path class="cls-3" d="m125.48,16c7.4-8.9,8.71-16,3.09-16h-.52c-5.62,0-16.36,7.1-24.04,16L25.92,106.39h24.43L125.48,16Z"/>
              <path class="cls-1" d="m146.96,16c7.11-8.9,8.18-16,2.56-16h-.52c-5.62,0-16.12,7.1-23.52,16L50.35,106.39h24.43L146.96,16Z"/>
              <path class="cls-3" d="m168.44,16c6.82-8.9,7.66-16,2.04-16h-.52c-5.62,0-15.89,7.1-23,16l-72.19,90.39h24.43L168.44,16Z"/>
              <path class="cls-1" d="m189.92,16c6.53-8.9,7.14-16,1.52-16h-.52c-5.62,0-15.66,7.1-22.48,16l-69.24,90.39h24.43L189.92,16Z"/>
              <path class="cls-3" d="m211.4,16c6.24-8.9,6.62-16,1-16h-.52c-5.62,0-15.43,7.1-21.96,16l-66.29,90.39h24.43l63.35-90.39Z"/>
              <path class="cls-1" d="m232.89,16c5.95-8.9,6.1-16,.48-16h-.52c-5.62,0-15.2,7.1-21.44,16l-63.35,90.39h24.43l60.4-90.39Z"/>
              <path class="cls-3" d="m254.37,16c5.66-8.9,5.58-16-.05-16h-.52c-5.62,0-14.97,7.1-20.91,16l-60.4,90.39h24.43l57.45-90.39Z"/>
              <path class="cls-1" d="m275.85,16c5.37-8.9,5.05-16-.57-16h-.52c-5.62,0-14.73,7.1-20.39,16l-57.45,90.39h24.43l54.51-90.39Z"/>
              <path class="cls-3" d="m297.33,16c5.08-8.9,4.53-16-1.09-16h-.52c-5.62,0-14.5,7.1-19.87,16l-54.51,90.39h24.43l51.56-90.39Z"/>
              <path class="cls-1" d="m318.81,16c4.79-8.9,4.01-16-1.61-16h-.52c-5.62,0-14.27,7.1-19.35,16l-51.56,90.39h24.43l48.61-90.39Z"/>
              <path class="cls-3" d="m340.29,16c4.5-8.9,3.49-16-2.13-16h-.52c-5.62,0-14.04,7.1-18.83,16l-48.61,90.39h24.43l45.67-90.39Z"/>
              <path class="cls-1" d="m361.77,16c4.21-8.9,2.97-16-2.65-16h-.52c-5.62,0-13.81,7.1-18.31,16l-45.67,90.39h24.43l42.72-90.39Z"/>
              <path class="cls-3" d="m383.26,16c3.92-8.9,2.44-16-3.18-16h-.52c-5.62,0-13.58,7.1-17.78,16l-42.72,90.39h24.43l39.78-90.39Z"/>
              <path class="cls-1" d="m404.74,16c3.63-8.9,1.92-16-3.7-16h-.52c-5.62,0-13.35,7.1-17.26,16l-39.78,90.39h24.43l36.83-90.39Z"/>
              <path class="cls-3" d="m426.22,16c3.34-8.9,1.4-16-4.22-16h-.52c-5.62,0-13.11,7.1-16.74,16l-36.83,90.39h24.43l33.88-90.39Z"/>
              <path class="cls-1" d="m447.7,16c3.05-8.9.88-16-4.74-16h-.52c-5.62,0-12.88,7.1-16.22,16l-33.88,90.39h24.43l30.94-90.39Z"/>
              <path class="cls-3" d="m469.18,16c2.76-8.9.36-16-5.26-16h-.52c-5.62,0-12.65,7.1-15.7,16l-30.94,90.39h24.43l27.99-90.39Z"/>
              <path class="cls-1" d="m490.66,16c2.47-8.9-.16-16-5.78-16h-.52c-5.62,0-12.42,7.1-15.17,16l-27.99,90.39h24.43l25.04-90.39Z"/>
              <path class="cls-3" d="m512.15,16c2.18-8.9-.69-16-6.31-16h-.52c-5.62,0-12.19,7.1-14.65,16l-25.04,90.39h24.43l22.1-90.39Z"/>
              <path class="cls-1" d="m533.63,16c1.89-8.9-1.21-16-6.83-16h-.52c-5.62,0-11.96,7.1-14.13,16l-22.1,90.39h24.43l19.15-90.39Z"/>
              <path class="cls-3" d="m555.11,16c1.6-8.9-1.73-16-7.35-16h-.52c-5.62,0-11.72,7.1-13.61,16l-19.15,90.39h24.43l16.2-90.39Z"/>
              <path class="cls-1" d="m576.59,16c1.31-8.9-2.25-16-7.87-16h-.52c-5.62,0-11.49,7.1-13.09,16l-16.2,90.39h24.43l13.26-90.39Z"/>
              <path class="cls-3" d="m598.07,16c1.02-8.9-2.77-16-8.39-16h-.52c-5.62,0-11.26,7.1-12.57,16l-13.26,90.39h24.43l10.31-90.39Z"/>
              <path class="cls-1" d="m619.55,16c.73-8.9-3.29-16-8.91-16h-.52c-5.62,0-11.03,7.1-12.04,16l-10.31,90.39h24.43l7.37-90.39Z"/>
              <path class="cls-3" d="m641.03,16c.44-8.9-3.82-16-9.44-16h-.52c-5.62,0-10.8,7.1-11.52,16l-7.37,90.39h24.43l4.42-90.39Z"/>
              <path class="cls-1" d="m662.52,16c.15-8.9-4.34-16-9.96-16h-.52c-5.62,0-10.57,7.1-11,16l-4.42,90.39h24.43l1.47-90.39Z"/>
              <path class="cls-3" d="m684,16c-.15-8.9-4.86-16-10.48-16h-.52c-5.62,0-10.33,7.1-10.48,16l-1.47,90.39h24.43l-1.47-90.39Z"/>
              <path class="cls-1" d="m705.48,16c-.44-8.9-5.38-16-11-16h-.52c-5.62,0-10.1,7.1-9.96,16l1.47,90.39h24.43l-4.42-90.39Z"/>
              <path class="cls-3" d="m726.96,16c-.73-8.9-5.9-16-11.52-16h-.52c-5.62,0-9.87,7.1-9.44,16l4.42,90.39h24.43l-7.37-90.39Z"/>
              <path class="cls-1" d="m748.44,16c-1.02-8.9-6.42-16-12.04-16h-.52c-5.62,0-9.64,7.1-8.91,16l7.37,90.39h24.43l-10.31-90.39Z"/>
              <path class="cls-3" d="m769.92,16c-1.31-8.9-6.95-16-12.57-16h-.52c-5.62,0-9.41,7.1-8.39,16l10.31,90.39h24.43l-13.26-90.39Z"/>
              <path class="cls-1" d="m791.4,16c-1.6-8.9-7.47-16-13.09-16h-.52c-5.62,0-9.18,7.1-7.87,16l13.26,90.39h24.43l-16.2-90.39Z"/>
              <path class="cls-3" d="m812.89,16c-1.89-8.9-7.99-16-13.61-16h-.52c-5.62,0-8.94,7.1-7.35,16l16.2,90.39h24.43l-19.15-90.39Z"/>
              <path class="cls-1" d="m834.37,16c-2.18-8.9-8.51-16-14.13-16h-.52c-5.62,0-8.71,7.1-6.83,16l19.15,90.39h24.43l-22.1-90.39Z"/>
              <path class="cls-3" d="m855.85,16c-2.47-8.9-9.03-16-14.65-16h-.52c-5.62,0-8.48,7.1-6.31,16l22.1,90.39h24.43l-25.04-90.39Z"/>
              <path class="cls-1" d="m877.33,16c-2.76-8.9-9.55-16-15.17-16h-.52c-5.62,0-8.25,7.1-5.78,16l25.04,90.39h24.43l-27.99-90.39Z"/>
              <path class="cls-3" d="m898.81,16c-3.05-8.9-10.08-16-15.7-16h-.52c-5.62,0-8.02,7.1-5.26,16l27.99,90.39h24.43l-30.94-90.39Z"/>
              <path class="cls-1" d="m920.29,16c-3.34-8.9-10.6-16-16.22-16h-.52c-5.62,0-7.79,7.1-4.74,16l30.94,90.39h24.43l-33.88-90.39Z"/>
              <path class="cls-3" d="m941.78,16c-3.63-8.9-11.12-16-16.74-16h-.52c-5.62,0-7.56,7.1-4.22,16l33.88,90.39h24.43l-36.83-90.39Z"/>
              <path class="cls-1" d="m963.26,16c-3.92-8.9-11.64-16-17.26-16h-.52c-5.62,0-7.32,7.1-3.7,16l36.83,90.39h24.43l-39.78-90.39Z"/>
              <path class="cls-3" d="m984.74,16c-4.21-8.9-12.16-16-17.78-16h-.52c-5.62,0-7.09,7.1-3.18,16l39.78,90.39h24.43l-42.72-90.39Z"/>
              <path class="cls-1" d="m1006.22,16c-4.5-8.9-12.68-16-18.31-16h-.52c-5.62,0-6.86,7.1-2.65,16l42.72,90.39h24.43l-45.67-90.39Z"/>
              <path class="cls-3" d="m1027.7,16c-4.79-8.9-13.21-16-18.83-16h-.52c-5.62,0-6.63,7.1-2.13,16l45.67,90.39h24.43l-48.61-90.39Z"/>
              <path class="cls-1" d="m1049.18,16c-5.08-8.9-13.73-16-19.35-16h-.52c-5.62,0-6.4,7.1-1.61,16l48.61,90.39h24.43l-51.56-90.39Z"/>
              <path class="cls-3" d="m1070.66,16c-5.37-8.9-14.25-16-19.87-16h-.52c-5.62,0-6.17,7.1-1.09,16l51.56,90.39h24.43l-54.51-90.39Z"/>
              <path class="cls-1" d="m1092.15,16c-5.66-8.9-14.77-16-20.39-16h-.52c-5.62,0-5.93,7.1-.57,16l54.51,90.39h24.43l-57.45-90.39Z"/>
              <path class="cls-3" d="m1113.63,16c-5.95-8.9-15.29-16-20.91-16h-.52c-5.62,0-5.7,7.1-.05,16l57.45,90.39h24.43l-60.4-90.39Z"/>
              <path class="cls-1" d="m1135.11,16c-6.24-8.9-15.82-16-21.44-16h-.52c-5.62,0-5.47,7.1.48,16l60.4,90.39h24.43l-63.35-90.39Z"/>
              <path class="cls-3" d="m1156.59,16c-6.53-8.9-16.34-16-21.96-16h-.52c-5.62,0-5.24,7.1,1,16l63.35,90.39h24.43l-66.29-90.39Z"/>
              <path class="cls-1" d="m1178.07,16c-6.82-8.9-16.86-16-22.48-16h-.52c-5.62,0-5.01,7.1,1.52,16l66.29,90.39h24.43l-69.24-90.39Z"/>
              <path class="cls-3" d="m1199.55,16c-7.11-8.9-17.38-16-23-16h-.52c-5.62,0-4.78,7.1,2.04,16l69.24,90.39h24.43l-72.19-90.39Z"/>
              <path class="cls-1" d="m1221.03,16c-7.4-8.9-17.9-16-23.52-16h-.52c-5.62,0-4.54,7.1,2.56,16l72.19,90.39h24.43l-75.13-90.39Z"/>
              <path class="cls-3" d="m1242.52,16c-7.69-8.9-18.42-16-24.04-16h-.52c-5.62,0-4.31,7.1,3.09,16l75.13,90.39h24.43l-78.08-90.39Z"/>
              <path class="cls-1" d="m1264,16c-7.98-8.9-18.95-16-24.57-16h-.52c-5.62,0-4.08,7.1,3.61,16l78.08,90.39h24.43l-81.02-90.39Z"/>
            </g>
            <path class="cls-4" d="m1264,16C1256.02,7.1,1245.05,0,1239.43,0h-.52c-5.62,0-4.08,7.1,3.61,16C1234.83,7.1,1224.09,0,1218.47,0h-.52c-5.62,0-4.31,7.1,3.09,16C1213.64,7.1,1203.13,0,1197.51,0h-.52c-5.62,0-4.54,7.1,2.56,16C1192.45,7.1,1182.17,0,1176.55,0h-.52c-5.62,0-4.78,7.1,2.04,16C1171.25,7.1,1161.21,0,1155.59,0h-.52c-5.62,0-5.01,7.1,1.52,16C1150.06,7.1,1140.25,0,1134.63,0h-.52c-5.62,0-5.24,7.1,1,16C1128.87,7.1,1119.29,0,1113.67,0h-.52c-5.62,0-5.47,7.1.48,16C1107.68,7.1,1098.33,0,1092.71,0h-.52c-5.62,0-5.7,7.1-.04,16C1086.49,7.1,1077.37,0,1071.75,0h-.52c-5.62,0-5.93,7.1-.57,16C1065.3,7.1,1056.41,0,1050.79,0h-.52c-5.62,0-6.17,7.1-1.09,16C1044.11,7.1,1035.45,0,1029.83,0h-.52c-5.62,0-6.4,7.1-1.61,16C1022.91,7.1,1014.49,0,1008.87,0h-.52c-5.62,0-6.63,7.1-2.13,16C1001.72,7.1,993.53,0,987.91,0h-.52c-5.62,0-6.86,7.1-2.65,16C980.53,7.1,972.58,0,966.95,0h-.52c-5.62,0-7.09,7.1-3.18,16C959.34,7.1,951.62,0,946,0h-.52c-5.62,0-7.32,7.1-3.7,16C938.15,7.1,930.66,0,925.04,0h-.52C918.89,0,916.96,7.1,920.29,16,916.96,7.1,909.7,0,904.08,0h-.52C897.93,0,895.77,7.1,898.81,16,895.77,7.1,888.74,0,883.12,0h-.52C876.97,0,874.57,7.1,877.33,16,874.57,7.1,867.78,0,862.16,0h-.52C856.01,0,853.38,7.1,855.85,16,853.38,7.1,846.82,0,841.2,0h-.52C835.05,0,832.19,7.1,834.37,16,832.19,7.1,825.86,0,820.24,0h-.52C814.09,0,811,7.1,812.89,16,811,7.1,804.9,0,799.28,0h-.52C793.13,0,789.81,7.1,791.4,16,789.81,7.1,783.94,0,778.32,0h-.52C772.17,0,768.62,7.1,769.92,16,768.62,7.1,762.98,0,757.36,0h-.52C751.21,0,747.43,7.1,748.44,16,747.43,7.1,742.02,0,736.4,0h-.52C730.25,0,726.24,7.1,726.96,16,726.24,7.1,721.06,0,715.44,0h-.52C709.29,0,705.04,7.1,705.48,16,705.04,7.1,700.1,0,694.48,0h-.52C688.33,0,683.85,7.1,684,16,683.85,7.1,679.14,0,673.52,0h-.52C667.37,0,662.66,7.1,662.52,16,662.66,7.1,658.18,0,652.56,0h-.52C646.42,0,641.47,7.1,641.03,16,641.47,7.1,637.22,0,631.6,0h-.52C625.46,0,620.28,7.1,619.55,16,620.28,7.1,616.26,0,610.64,0h-.52C604.5,0,599.09,7.1,598.07,16,599.09,7.1,595.3,0,589.68,0h-.52C583.54,0,577.9,7.1,576.59,16,577.9,7.1,574.34,0,568.72,0h-.52C562.58,0,556.7,7.1,555.11,16,556.7,7.1,553.38,0,547.76,0h-.52C541.62,0,535.51,7.1,533.63,16,535.51,7.1,532.42,0,526.8,0h-.52C520.66,0,514.32,7.1,512.15,16,514.32,7.1,511.46,0,505.84,0h-.52C499.7,0,493.13,7.1,490.66,16,493.13,7.1,490.5,0,484.88,0h-.52C478.74,0,471.94,7.1,469.18,16,471.94,7.1,469.54,0,463.92,0h-.52C457.78,0,450.75,7.1,447.7,16,450.75,7.1,448.58,0,442.96,0h-.52C436.82,0,429.56,7.1,426.22,16,429.56,7.1,427.62,0,422,0h-.52C415.86,0,408.36,7.1,404.74,16,408.36,7.1,406.66,0,401.04,0h-.52C394.9,0,387.17,7.1,383.26,16,387.17,7.1,385.7,0,380.08,0h-.52C373.94,0,365.98,7.1,361.77,16,365.98,7.1,364.74,0,359.12,0h-.52C352.98,0,344.79,7.1,340.29,16,344.79,7.1,343.78,0,338.16,0h-.52C332.02,0,323.6,7.1,318.81,16,323.6,7.1,322.82,0,317.2,0h-.52C311.06,0,302.41,7.1,297.33,16,302.41,7.1,301.86,0,296.24,0h-.52C290.1,0,281.22,7.1,275.85,16,281.22,7.1,280.9,0,275.28,0h-.52C269.14,0,260.02,7.1,254.37,16,260.02,7.1,259.94,0,254.32,0h-.52C248.18,0,238.83,7.1,232.89,16,238.83,7.1,238.98,0,233.36,0h-.52C227.22,0,217.64,7.1,211.4,16,217.64,7.1,218.02,0,212.4,0h-.52C206.26,0,196.45,7.1,189.92,16,196.45,7.1,197.06,0,191.44,0h-.52C185.3,0,175.26,7.1,168.44,16,175.26,7.1,176.1,0,170.48,0h-.52C164.34,0,154.07,7.1,146.96,16,154.07,7.1,155.14,0,149.52,0h-.52C143.38,0,132.88,7.1,125.48,16,132.88,7.1,134.18,0,128.56,0h-.52C122.42,0,111.68,7.1,104,16,111.68,7.1,113.22,0,107.6,0h-.52C101.46,0,90.49,7.1,82.52,16L1.49,106.39h1343.53l-81.02-90.39Z"/>
            <g>
              <path class="cls-1" d="m0,106.39v22.69c0,6.56,5.37,11.93,11.93,11.93h.61c6.56,0,11.93-5.37,11.93-11.93v-22.69H0Z"/>
              <path class="cls-3" d="m24.47,106.39v22.69c0,6.56,5.37,11.93,11.93,11.93h.61c6.56,0,11.93-5.37,11.93-11.93v-22.69h-24.47Z"/>
              <path class="cls-1" d="m48.95,106.39v22.69c0,6.56,5.37,11.93,11.93,11.93h.61c6.56,0,11.93-5.37,11.93-11.93v-22.69h-24.47Z"/>
              <path class="cls-3" d="m73.42,106.39v22.69c0,6.56,5.37,11.93,11.93,11.93h.61c6.56,0,11.93-5.37,11.93-11.93v-22.69h-24.47Z"/>
              <path class="cls-1" d="m97.89,106.39v22.69c0,6.56,5.37,11.93,11.93,11.93h.61c6.56,0,11.93-5.37,11.93-11.93v-22.69h-24.47Z"/>
              <path class="cls-3" d="m122.37,106.39v22.69c0,6.56,5.37,11.93,11.93,11.93h.61c6.56,0,11.93-5.37,11.93-11.93v-22.69h-24.47Z"/>
              <path class="cls-1" d="m146.84,106.39v22.69c0,6.56,5.37,11.93,11.93,11.93h.61c6.56,0,11.93-5.37,11.93-11.93v-22.69h-24.47Z"/>
              <path class="cls-3" d="m171.32,106.39v22.69c0,6.56,5.37,11.93,11.93,11.93h.61c6.56,0,11.93-5.37,11.93-11.93v-22.69h-24.47Z"/>
              <path class="cls-1" d="m195.79,106.39v22.69c0,6.56,5.37,11.93,11.93,11.93h.61c6.56,0,11.93-5.37,11.93-11.93v-22.69h-24.47Z"/>
              <path class="cls-3" d="m220.26,106.39v22.69c0,6.56,5.37,11.93,11.93,11.93h.61c6.56,0,11.93-5.37,11.93-11.93v-22.69h-24.47Z"/>
              <path class="cls-1" d="m244.74,106.39v22.69c0,6.56,5.37,11.93,11.93,11.93h.61c6.56,0,11.93-5.37,11.93-11.93v-22.69h-24.47Z"/>
              <path class="cls-3" d="m269.21,106.39v22.69c0,6.56,5.37,11.93,11.93,11.93h.61c6.56,0,11.93-5.37,11.93-11.93v-22.69h-24.47Z"/>
              <path class="cls-1" d="m293.68,106.39v22.69c0,6.56,5.37,11.93,11.93,11.93h.61c6.56,0,11.93-5.37,11.93-11.93v-22.69h-24.47Z"/>
              <path class="cls-3" d="m318.16,106.39v22.69c0,6.56,5.37,11.93,11.93,11.93h.61c6.56,0,11.93-5.37,11.93-11.93v-22.69h-24.47Z"/>
              <path class="cls-1" d="m342.63,106.39v22.69c0,6.56,5.37,11.93,11.93,11.93h.61c6.56,0,11.93-5.37,11.93-11.93v-22.69h-24.47Z"/>
              <path class="cls-3" d="m367.11,106.39v22.69c0,6.56,5.37,11.93,11.93,11.93h.61c6.56,0,11.93-5.37,11.93-11.93v-22.69h-24.47Z"/>
              <path class="cls-1" d="m391.58,106.39v22.69c0,6.56,5.37,11.93,11.93,11.93h.61c6.56,0,11.93-5.37,11.93-11.93v-22.69h-24.47Z"/>
              <path class="cls-3" d="m416.05,106.39v22.69c0,6.56,5.37,11.93,11.93,11.93h.61c6.56,0,11.93-5.37,11.93-11.93v-22.69h-24.47Z"/>
              <path class="cls-1" d="m440.53,106.39v22.69c0,6.56,5.37,11.93,11.93,11.93h.61c6.56,0,11.93-5.37,11.93-11.93v-22.69h-24.47Z"/>
              <path class="cls-3" d="m465,106.39v22.69c0,6.56,5.37,11.93,11.93,11.93h.61c6.56,0,11.93-5.37,11.93-11.93v-22.69h-24.47Z"/>
              <path class="cls-1" d="m489.47,106.39v22.69c0,6.56,5.37,11.93,11.93,11.93h.61c6.56,0,11.93-5.37,11.93-11.93v-22.69h-24.47Z"/>
              <path class="cls-3" d="m513.95,106.39v22.69c0,6.56,5.37,11.93,11.93,11.93h.61c6.56,0,11.93-5.37,11.93-11.93v-22.69h-24.47Z"/>
              <path class="cls-1" d="m538.42,106.39v22.69c0,6.56,5.37,11.93,11.93,11.93h.61c6.56,0,11.93-5.37,11.93-11.93v-22.69h-24.47Z"/>
              <path class="cls-3" d="m562.9,106.39v22.69c0,6.56,5.37,11.93,11.93,11.93h.61c6.56,0,11.93-5.37,11.93-11.93v-22.69h-24.47Z"/>
              <path class="cls-1" d="m587.37,106.39v22.69c0,6.56,5.37,11.93,11.93,11.93h.61c6.56,0,11.93-5.37,11.93-11.93v-22.69h-24.47Z"/>
              <path class="cls-3" d="m611.84,106.39v22.69c0,6.56,5.37,11.93,11.93,11.93h.61c6.56,0,11.93-5.37,11.93-11.93v-22.69h-24.47Z"/>
              <path class="cls-1" d="m636.32,106.39v22.69c0,6.56,5.37,11.93,11.93,11.93h.61c6.56,0,11.93-5.37,11.93-11.93v-22.69h-24.47Z"/>
              <path class="cls-3" d="m660.79,106.39v22.69c0,6.56,5.37,11.93,11.93,11.93h.61c6.56,0,11.93-5.37,11.93-11.93v-22.69h-24.47Z"/>
              <path class="cls-1" d="m685.26,106.39v22.69c0,6.56,5.37,11.93,11.93,11.93h.61c6.56,0,11.93-5.37,11.93-11.93v-22.69h-24.47Z"/>
              <path class="cls-3" d="m709.74,106.39v22.69c0,6.56,5.37,11.93,11.93,11.93h.61c6.56,0,11.93-5.37,11.93-11.93v-22.69h-24.47Z"/>
              <path class="cls-1" d="m734.21,106.39v22.69c0,6.56,5.37,11.93,11.93,11.93h.61c6.56,0,11.93-5.37,11.93-11.93v-22.69h-24.47Z"/>
              <path class="cls-3" d="m758.69,106.39v22.69c0,6.56,5.37,11.93,11.93,11.93h.61c6.56,0,11.93-5.37,11.93-11.93v-22.69h-24.47Z"/>
              <path class="cls-1" d="m783.16,106.39v22.69c0,6.56,5.37,11.93,11.93,11.93h.61c6.56,0,11.93-5.37,11.93-11.93v-22.69h-24.47Z"/>
              <path class="cls-3" d="m807.63,106.39v22.69c0,6.56,5.37,11.93,11.93,11.93h.61c6.56,0,11.93-5.37,11.93-11.93v-22.69h-24.47Z"/>
              <path class="cls-1" d="m832.11,106.39v22.69c0,6.56,5.37,11.93,11.93,11.93h.61c6.56,0,11.93-5.37,11.93-11.93v-22.69h-24.47Z"/>
              <path class="cls-3" d="m856.58,106.39v22.69c0,6.56,5.37,11.93,11.93,11.93h.61c6.56,0,11.93-5.37,11.93-11.93v-22.69h-24.47Z"/>
              <path class="cls-1" d="m881.05,106.39v22.69c0,6.56,5.37,11.93,11.93,11.93h.61c6.56,0,11.93-5.37,11.93-11.93v-22.69h-24.47Z"/>
              <path class="cls-3" d="m905.53,106.39v22.69c0,6.56,5.37,11.93,11.93,11.93h.61c6.56,0,11.93-5.37,11.93-11.93v-22.69h-24.47Z"/>
              <path class="cls-1" d="m930,106.39v22.69c0,6.56,5.37,11.93,11.93,11.93h.61c6.56,0,11.93-5.37,11.93-11.93v-22.69h-24.47Z"/>
              <path class="cls-3" d="m954.48,106.39v22.69c0,6.56,5.37,11.93,11.93,11.93h.61c6.56,0,11.93-5.37,11.93-11.93v-22.69h-24.47Z"/>
              <path class="cls-1" d="m978.95,106.39v22.69c0,6.56,5.37,11.93,11.93,11.93h.61c6.56,0,11.93-5.37,11.93-11.93v-22.69h-24.47Z"/>
              <path class="cls-3" d="m1003.42,106.39v22.69c0,6.56,5.37,11.93,11.93,11.93h.61c6.56,0,11.93-5.37,11.93-11.93v-22.69h-24.47Z"/>
              <path class="cls-1" d="m1027.9,106.39v22.69c0,6.56,5.37,11.93,11.93,11.93h.61c6.56,0,11.93-5.37,11.93-11.93v-22.69h-24.47Z"/>
              <path class="cls-3" d="m1052.37,106.39v22.69c0,6.56,5.37,11.93,11.93,11.93h.61c6.56,0,11.93-5.37,11.93-11.93v-22.69h-24.47Z"/>
              <path class="cls-1" d="m1076.84,106.39v22.69c0,6.56,5.37,11.93,11.93,11.93h.61c6.56,0,11.93-5.37,11.93-11.93v-22.69h-24.47Z"/>
              <path class="cls-3" d="m1101.32,106.39v22.69c0,6.56,5.37,11.93,11.93,11.93h.61c6.56,0,11.93-5.37,11.93-11.93v-22.69h-24.47Z"/>
              <path class="cls-1" d="m1125.79,106.39v22.69c0,6.56,5.37,11.93,11.93,11.93h.61c6.56,0,11.93-5.37,11.93-11.93v-22.69h-24.47Z"/>
              <path class="cls-3" d="m1150.26,106.39v22.69c0,6.56,5.37,11.93,11.93,11.93h.61c6.56,0,11.93-5.37,11.93-11.93v-22.69h-24.47Z"/>
              <path class="cls-1" d="m1174.74,106.39v22.69c0,6.56,5.37,11.93,11.93,11.93h.61c6.56,0,11.93-5.37,11.93-11.93v-22.69h-24.47Z"/>
              <path class="cls-3" d="m1199.21,106.39v22.69c0,6.56,5.37,11.93,11.93,11.93h.61c6.56,0,11.93-5.37,11.93-11.93v-22.69h-24.47Z"/>
              <path class="cls-1" d="m1223.69,106.39v22.69c0,6.56,5.37,11.93,11.93,11.93h.61c6.56,0,11.93-5.37,11.93-11.93v-22.69h-24.47Z"/>
              <path class="cls-3" d="m1248.16,106.39v22.69c0,6.56,5.37,11.93,11.93,11.93h.61c6.56,0,11.93-5.37,11.93-11.93v-22.69h-24.47Z"/>
              <path class="cls-1" d="m1272.63,106.39v22.69c0,6.56,5.37,11.93,11.93,11.93h.61c6.56,0,11.93-5.37,11.93-11.93v-22.69h-24.47Z"/>
              <path class="cls-3" d="m1297.11,106.39v22.69c0,6.56,5.37,11.93,11.93,11.93h.61c6.56,0,11.93-5.37,11.93-11.93v-22.69h-24.47Z"/>
              <path class="cls-1" d="m1321.58,106.39v22.69c0,6.56,5.37,11.93,11.93,11.93h.61c6.56,0,11.93-5.37,11.93-11.93v-22.69h-24.47Z"/>
            </g>
            <path class="cls-5" d="m1321.58,106.39H0v22.69C0,135.65,5.37,141.02,11.93,141.02h.61c6.56,0,11.93-5.37,11.93-11.93,0,6.56,5.37,11.93,11.93,11.93h.61c6.56,0,11.93-5.37,11.93-11.93,0,6.56,5.37,11.93,11.93,11.93h.61c6.56,0,11.93-5.37,11.93-11.93,0,6.56,5.37,11.93,11.93,11.93h.61c6.56,0,11.93-5.37,11.93-11.93,0,6.56,5.37,11.93,11.93,11.93h.61c6.56,0,11.93-5.37,11.93-11.93,0,6.56,5.37,11.93,11.93,11.93h.61c6.56,0,11.93-5.37,11.93-11.93,0,6.56,5.37,11.93,11.93,11.93h.61c6.56,0,11.93-5.37,11.93-11.93,0,6.56,5.37,11.93,11.93,11.93h.61c6.56,0,11.93-5.37,11.93-11.93,0,6.56,5.37,11.93,11.93,11.93h.61c6.56,0,11.93-5.37,11.93-11.93,0,6.56,5.37,11.93,11.93,11.93h.61c6.56,0,11.93-5.37,11.93-11.93,0,6.56,5.37,11.93,11.93,11.93h.61c6.56,0,11.93-5.37,11.93-11.93,0,6.56,5.37,11.93,11.93,11.93h.61c6.56,0,11.93-5.37,11.93-11.93,0,6.56,5.37,11.93,11.93,11.93h.61c6.56,0,11.93-5.37,11.93-11.93,0,6.56,5.37,11.93,11.93,11.93h.61c6.56,0,11.93-5.37,11.93-11.93,0,6.56,5.37,11.93,11.93,11.93h.61c6.56,0,11.93-5.37,11.93-11.93,0,6.56,5.37,11.93,11.93,11.93h.61c6.56,0,11.93-5.37,11.93-11.93,0,6.56,5.37,11.93,11.93,11.93h.61c6.56,0,11.93-5.37,11.93-11.93,0,6.56,5.37,11.93,11.93,11.93h.61c6.56,0,11.93-5.37,11.93-11.93,0,6.56,5.37,11.93,11.93,11.93h.61c6.56,0,11.93-5.37,11.93-11.93,0,6.56,5.37,11.93,11.93,11.93h.61c6.56,0,11.93-5.37,11.93-11.93,0,6.56,5.37,11.93,11.93,11.93h.61c6.56,0,11.93-5.37,11.93-11.93,0,6.56,5.37,11.93,11.93,11.93h.61c6.56,0,11.93-5.37,11.93-11.93,0,6.56,5.37,11.93,11.93,11.93h.61c6.56,0,11.93-5.37,11.93-11.93,0,6.56,5.37,11.93,11.93,11.93h.61c6.56,0,11.93-5.37,11.93-11.93,0,6.56,5.37,11.93,11.93,11.93h.61c6.56,0,11.93-5.37,11.93-11.93,0,6.56,5.37,11.93,11.93,11.93h.61c6.56,0,11.93-5.37,11.93-11.93,0,6.56,5.37,11.93,11.93,11.93h.61c6.56,0,11.93-5.37,11.93-11.93,0,6.56,5.37,11.93,11.93,11.93h.61c6.56,0,11.93-5.37,11.93-11.93,0,6.56,5.37,11.93,11.93,11.93h.61c6.56,0,11.93-5.37,11.93-11.93,0,6.56,5.37,11.93,11.93,11.93h.61c6.56,0,11.93-5.37,11.93-11.93,0,6.56,5.37,11.93,11.93,11.93h.61c6.56,0,11.93-5.37,11.93-11.93,0,6.56,5.37,11.93,11.93,11.93h.61c6.56,0,11.93-5.37,11.93-11.93,0,6.56,5.37,11.93,11.93,11.93h.61c6.56,0,11.93-5.37,11.93-11.93,0,6.56,5.37,11.93,11.93,11.93h.61c6.56,0,11.93-5.37,11.93-11.93,0,6.56,5.37,11.93,11.93,11.93h.61c6.56,0,11.93-5.37,11.93-11.93,0,6.56,5.37,11.93,11.93,11.93h.61c6.56,0,11.93-5.37,11.93-11.93,0,6.56,5.37,11.93,11.93,11.93h.61c6.56,0,11.93-5.37,11.93-11.93,0,6.56,5.37,11.93,11.93,11.93h.61c6.56,0,11.93-5.37,11.93-11.93,0,6.56,5.37,11.93,11.93,11.93h.61c6.56,0,11.93-5.37,11.93-11.93,0,6.56,5.37,11.93,11.93,11.93h.61c6.56,0,11.93-5.37,11.93-11.93,0,6.56,5.37,11.93,11.93,11.93h.61c6.56,0,11.93-5.37,11.93-11.93,0,6.56,5.37,11.93,11.93,11.93h.61c6.56,0,11.93-5.37,11.93-11.93,0,6.56,5.37,11.93,11.93,11.93h.61c6.56,0,11.93-5.37,11.93-11.93,0,6.56,5.37,11.93,11.93,11.93h.61c6.56,0,11.93-5.37,11.93-11.93,0,6.56,5.37,11.93,11.93,11.93h.61c6.56,0,11.93-5.37,11.93-11.93,0,6.56,5.37,11.93,11.93,11.93h.61c6.56,0,11.93-5.37,11.93-11.93,0,6.56,5.37,11.93,11.93,11.93h.61c6.56,0,11.93-5.37,11.93-11.93,0,6.56,5.37,11.93,11.93,11.93h.61c6.56,0,11.93-5.37,11.93-11.93,0,6.56,5.37,11.93,11.93,11.93h.61c6.56,0,11.93-5.37,11.93-11.93,0,6.56,5.37,11.93,11.93,11.93h.61c6.56,0,11.93-5.37,11.93-11.93,0,6.56,5.37,11.93,11.93,11.93h.61c6.56,0,11.93-5.37,11.93-11.93,0,6.56,5.37,11.93,11.93,11.93h.61c6.56,0,11.93-5.37,11.93-11.93,0,6.56,5.37,11.93,11.93,11.93h.61c6.56,0,11.93-5.37,11.93-11.93,0,6.56,5.37,11.93,11.93,11.93h.61c6.56,0,11.93-5.37,11.93-11.93,0,6.56,5.37,11.93,11.93,11.93h.61c6.56,0,11.93-5.37,11.93-11.93v-22.69h-24.47Z"/>
          </g>
        </g>
      </g>
    </g>
  </g>
</svg>